<?xml version="1.0" standalone="no"?>
<svg xmlns:xlink="http://www.w3.org/1999/xlink" id="wave" style="transform:rotate(0deg); transition: 0.3s" viewBox="0 0 1440 390" version="1.1" xmlns="http://www.w3.org/2000/svg"><defs><linearGradient id="sw-gradient-0" x1="0" x2="0" y1="1" y2="0"><stop stop-color="rgba(31.259, 0, 52.793, 1)" offset="0%"/><stop stop-color="rgba(143.972, 82.871, 255, 1)" offset="100%"/></linearGradient></defs><path style="transform:translate(0, 0px); opacity:1" fill="url(#sw-gradient-0)" d="M0,78L48,78C96,78,192,78,288,71.5C384,65,480,52,576,52C672,52,768,65,864,78C960,91,1056,104,1152,91C1248,78,1344,39,1440,71.5C1536,104,1632,208,1728,253.5C1824,299,1920,286,2016,253.5C2112,221,2208,169,2304,149.5C2400,130,2496,143,2592,162.5C2688,182,2784,208,2880,214.5C2976,221,3072,208,3168,227.5C3264,247,3360,299,3456,312C3552,325,3648,299,3744,273C3840,247,3936,221,4032,227.5C4128,234,4224,273,4320,286C4416,299,4512,286,4608,253.5C4704,221,4800,169,4896,123.5C4992,78,5088,39,5184,71.5C5280,104,5376,208,5472,260C5568,312,5664,312,5760,299C5856,286,5952,260,6048,266.5C6144,273,6240,312,6336,279.5C6432,247,6528,143,6624,143C6720,143,6816,247,6864,299L6912,351L6912,390L6864,390C6816,390,6720,390,6624,390C6528,390,6432,390,6336,390C6240,390,6144,390,6048,390C5952,390,5856,390,5760,390C5664,390,5568,390,5472,390C5376,390,5280,390,5184,390C5088,390,4992,390,4896,390C4800,390,4704,390,4608,390C4512,390,4416,390,4320,390C4224,390,4128,390,4032,390C3936,390,3840,390,3744,390C3648,390,3552,390,3456,390C3360,390,3264,390,3168,390C3072,390,2976,390,2880,390C2784,390,2688,390,2592,390C2496,390,2400,390,2304,390C2208,390,2112,390,2016,390C1920,390,1824,390,1728,390C1632,390,1536,390,1440,390C1344,390,1248,390,1152,390C1056,390,960,390,864,390C768,390,672,390,576,390C480,390,384,390,288,390C192,390,96,390,48,390L0,390Z"/></svg>